PathFileType	4	(X/Y/Z)	/Users/itak/Documents/Research/Walk-IL/dataset/trc/00463_00167.trc
DataRate	CameraRate	NumFrames	NumMarkers	Units	OrigDataRate	OrigDataStartFrame	OrigNumFrames
100.000000	100.000000	4	53	mm	100.000000	217	579
Frame#	Time	RPSI			LPSI			L3			STRN			T10			C7			CLAV			RBAK			LBAK			LSHO			LUPA			LAEL			LAOL			LWTS			LWPS			LFRA			LIFD			LHPS			LHTS			RSHO			RUPA			RAEL			RAOL			RWTS			RWPS			RFRA			RIFD			RHTS			RHPS			RBHD			LFHD			RFHD			LBHD			LHIP			RHIP			RASI			LASI			LKNE			LTHI			LANK			LTIP			LTOE			LMT1			LMT5			LHEE			RKNE			RTHI			RANK			RTIP			RTOE			RMT1			RMT5			RHEE			
		X1	Y1	Z1	X2	Y2	Z2	X3	Y3	Z3	X4	Y4	Z4	X5	Y5	Z5	X6	Y6	Z6	X7	Y7	Z7	X8	Y8	Z8	X9	Y9	Z9	X10	Y10	Z10	X11	Y11	Z11	X12	Y12	Z12	X13	Y13	Z13	X14	Y14	Z14	X15	Y15	Z15	X16	Y16	Z16	X17	Y17	Z17	X18	Y18	Z18	X19	Y19	Z19	X20	Y20	Z20	X21	Y21	Z21	X22	Y22	Z22	X23	Y23	Z23	X24	Y24	Z24	X25	Y25	Z25	X26	Y26	Z26	X27	Y27	Z27	X28	Y28	Z28	X29	Y29	Z29	X30	Y30	Z30	X31	Y31	Z31	X32	Y32	Z32	X33	Y33	Z33	X34	Y34	Z34	X35	Y35	Z35	X36	Y36	Z36	X37	Y37	Z37	X38	Y38	Z38	X39	Y39	Z39	X40	Y40	Z40	X41	Y41	Z41	X42	Y42	Z42	X43	Y43	Z43	X44	Y44	Z44	X45	Y45	Z45	X46	Y46	Z46	X47	Y47	Z47	X48	Y48	Z48	X49	Y49	Z49	X50	Y50	Z50	X51	Y51	Z51	X52	Y52	Z52	X53	Y53	Z53	

218	2.17	-865.3512573242188	940.3057250976562	-582.8919677734375	-904.786376953125	941.237060546875	-719.3944091796875	-864.6991577148438	1041.271728515625	-645.5753784179688	-584.4776000976562	1225.2041015625	-713.8826904296875	-871.3510131835938	1164.86083984375	-643.8607788085938	-783.2120971679688	1426.156005859375	-633.0078125	-612.7182006835938	1339.776123046875	-698.1970825195312	-827.7975463867188	1300.717651367188	-536.6412353515625	-842.0654296875	1390.805908203125	-724.6879272460938	-760.1221313476562	1417.201049804688	-827.244384765625	-802.1466064453125	1306.862915039062	-926.5358276367188	-811.3694458007812	1092.386596679688	-972.8141479492188	-871.6400756835938	1080.44580078125	-889.2340698242188	-743.6751708984375	881.0216674804688	-962.7017211914062	-808.49658203125	875.5263671875	-1002.553100585938	-803.4371948242188	1004.000305175781	-991.2388305664062	-765.6171264648438	713.037841796875	-979.125732421875	-808.9199829101562	796.8702392578125	-1011.606384277344	-741.7522583007812	794.095458984375	-983.7798461914062	-682.2733764648438	1380.734008789062	-496.1001586914062	-690.5160522460938	1315.893310546875	-423.3282470703125	-704.1723022460938	1031.53369140625	-374.8435363769531	-763.7060546875	1022.224792480469	-406.7835388183594	-640.4246826171875	816.0929565429688	-439.3559875488281	-695.4024658203125	809.17431640625	-370.5823974609375	-705.3041381835938	972.9710693359375	-366.2888488769531	-664.9822998046875	660.39697265625	-434.3584289550781	-639.7515869140625	715.9852294921875	-432.0773315429688	-694.5032958984375	720.8939208984375	-378.2629699707031	-694.7354125976562	1618.202880859375	-564.5838012695312	-554.825439453125	1632.356811523438	-715.9906616210938	-558.889404296875	1629.414428710938	-585.2387084960938	-705.150634765625	1627.309326171875	-741.8106079101562	-819.2957763671875	834.0673828125	-869.5463256835938	-696.392333984375	843.6175537109375	-491.2344360351562	-624.1386108398438	894.4362182617188	-582.928466796875	-698.4072875976562	872.6243286132812	-829.3233642578125	-858.911865234375	418.4273376464844	-841.7007446289062	-807.8923950195312	567.6099853515625	-866.5242309570312	-1181.896362304688	137.1916809082031	-750.719970703125	-968.3005981445312	301.1301574707031	-828.1693115234375	-995.7493286132812	40.04042053222656	-679.6022338867188	-1044.734985351562	68.89846801757812	-657.6911010742188	-1074.870971679688	40.08884811401367	-760.2877807617188	-1190.123901367188	190.5240478515625	-692.7125854492188	-599.305419921875	462.3400573730469	-579.6024780273438	-625.8477783203125	719.3838500976562	-514.8311767578125	-565.0103759765625	38.0643196105957	-620.1438598632812	-566.0375366210938	324.7196350097656	-591.4276733398438	-380.0049133300781	57.25766372680664	-738.001708984375	-453.1603088378906	58.19472503662109	-751.6957397460938	-433.3258972167969	45.23003387451172	-646.824462890625	-642.71044921875	30.2275218963623	-639.5825805664062	
219	2.18	-855.7081298828125	942.8146362304688	-583.622314453125	-895.1914672851562	943.0977172851562	-720.1812133789062	-855.05029296875	1043.3720703125	-645.8001098632812	-575.256591796875	1227.77099609375	-712.9710083007812	-861.9592895507812	1166.69091796875	-643.7886962890625	-774.735595703125	1427.968505859375	-632.1466674804688	-603.7489624023438	1342.218994140625	-696.9146728515625	-819.1575927734375	1302.201171875	-536.2640380859375	-833.1205444335938	1392.936645507812	-724.0529174804688	-750.7054443359375	1420.267456054688	-826.0743408203125	-791.8612060546875	1310.606689453125	-926.1636962890625	-800.2717895507812	1095.856567382812	-972.6685180664062	-861.1650390625	1083.661010742188	-889.7391357421875	-730.5945434570312	884.8563232421875	-961.885986328125	-795.0835571289062	878.859130859375	-1002.344848632812	-791.3768310546875	1007.500183105469	-991.0270385742188	-751.526123046875	716.5350952148438	-977.4784545898438	-794.8560791015625	799.9971313476562	-1010.985290527344	-728.1044311523438	797.7223510742188	-982.3433837890625	-674.2296752929688	1382.729248046875	-495.1699829101562	-682.4380493164062	1317.951293945312	-422.4224548339844	-694.9351196289062	1033.17919921875	-374.6690673828125	-754.3115234375	1023.486572265625	-406.7484436035156	-628.768798828125	818.651123046875	-440.238525390625	-683.9095458984375	810.7940673828125	-371.6527404785156	-695.50390625	974.5283813476562	-366.4241943359375	-652.1904296875	662.6925659179688	-436.4927978515625	-627.3058471679688	718.4425659179688	-433.6764526367188	-682.4367065429688	722.546875	-380.0923767089844	-686.1610107421875	1620.012084960938	-562.9514770507812	-545.4144897460938	1633.7822265625	-713.5645751953125	-550.1715698242188	1630.668212890625	-582.8627319335938	-695.6238403320312	1629.45361328125	-740.223876953125	-808.7686157226562	835.3952026367188	-870.0310668945312	-687.3441772460938	845.45263671875	-491.6497497558594	-614.8444213867188	895.8702392578125	-583.2994384765625	-688.3895263671875	875.0831909179688	-829.6691284179688	-841.417724609375	418.6828308105469	-849.5371704101562	-792.644775390625	568.6868896484375	-872.3328857421875	-1170.9951171875	145.6208648681641	-756.7410278320312	-953.4365844726562	303.6136779785156	-835.8084716796875	-994.2099609375	39.04513549804688	-680.4326171875	-1039.658203125	71.75794219970703	-660.441162109375	-1071.38427734375	40.73480224609375	-761.6593017578125	-1175.713012695312	200.980712890625	-700.4898681640625	-595.5138549804688	462.7111511230469	-579.016845703125	-618.6128540039062	720.3302612304688	-515.638427734375	-564.9983520507812	37.94021987915039	-620.0543823242188	-563.6737670898438	324.5619812011719	-590.8663940429688	-380.1638793945312	56.97555160522461	-738.3264770507812	-453.3880004882812	58.14289093017578	-751.8505859375	-433.3184204101562	45.259033203125	-646.9243774414062	-642.8101196289062	30.1804141998291	-639.1917114257812	
220	2.19	-846.1420288085938	945.0736694335938	-584.142822265625	-885.8425903320312	944.6294555664062	-720.6809692382812	-845.505126953125	1045.234252929688	-645.8825073242188	-566.2048950195312	1230.0888671875	-712.1207885742188	-852.6520385742188	1168.248168945312	-643.685302734375	-766.4464721679688	1429.55908203125	-631.35791015625	-594.9085083007812	1344.436767578125	-695.7256469726562	-810.6533203125	1303.433959960938	-535.9259033203125	-824.3572387695312	1394.819946289062	-723.4847412109375	-741.492431640625	1423.060424804688	-824.9931030273438	-781.769287109375	1314.018432617188	-925.8480834960938	-789.214599609375	1099.030639648438	-972.703369140625	-850.8180541992188	1086.542846679688	-890.4959716796875	-717.33837890625	888.5157470703125	-961.049072265625	-781.3208618164062	881.8895874023438	-1002.265075683594	-779.2062377929688	1010.733947753906	-990.9616088867188	-737.0975952148438	719.8304443359375	-975.7136840820312	-780.3853759765625	802.8375244140625	-1010.427307128906	-714.16162109375	801.1388549804688	-980.7844848632812	-666.34033203125	1384.553344726562	-494.3339538574219	-674.5142822265625	1319.865600585938	-421.5718078613281	-685.7607421875	1034.689697265625	-374.3541259765625	-744.9680786132812	1024.55029296875	-406.5389404296875	-616.8638916015625	821.2430419921875	-441.1133728027344	-672.115234375	812.313232421875	-372.678466796875	-685.6801147460938	975.9527587890625	-366.4263000488281	-638.9545288085938	665.0079956054688	-438.7836608886719	-614.5210571289062	720.94091796875	-435.3955688476562	-669.938720703125	724.116455078125	-381.9744262695312	-677.8517456054688	1621.614868164062	-561.3921508789062	-536.1594848632812	1635.064086914062	-711.1273193359375	-541.7119140625	1631.732055664062	-580.4759521484375	-686.256591796875	1631.437377929688	-738.7044677734375	-798.5015258789062	836.6207885742188	-870.42431640625	-678.397216796875	847.025390625	-492.0115966796875	-605.6693115234375	896.9381713867188	-583.6953125	-678.5951538085938	877.3833618164062	-830.00634765625	-823.4344482421875	418.9248046875	-857.4166870117188	-777.3020629882812	569.7989501953125	-878.298828125	-1158.907836914062	154.1545715332031	-763.420166015625	-937.59375	305.9122924804688	-843.5693359375	-991.8259887695312	37.77590942382812	-681.418701171875	-1033.555786132812	75.24711608886719	-663.59033203125	-1066.951049804688	41.88385391235352	-763.3974609375	-1160.361083984375	211.2358551025391	-708.904052734375	-592.0453491210938	462.8348388671875	-578.334716796875	-611.6856079101562	720.958740234375	-516.1887817382812	-565.0079956054688	37.85394287109375	-619.9953002929688	-561.5333862304688	324.3035583496094	-590.2786865234375	-380.2764892578125	56.71834564208984	-738.577880859375	-453.5650024414062	58.08032608032227	-751.9979248046875	-433.3191223144531	45.26291656494141	-646.9998168945312	-642.8941650390625	30.13349151611328	-638.9434814453125	
221	2.2	-836.7252807617188	947.056396484375	-584.4883422851562	-876.7714233398438	945.7359619140625	-720.9398803710938	-836.1005859375	1046.81884765625	-645.8583374023438	-557.3356323242188	1232.10595703125	-711.34814453125	-843.46435546875	1169.515380859375	-643.5768432617188	-758.3338012695312	1430.917602539062	-630.6603393554688	-586.1943359375	1346.382080078125	-694.6526489257812	-802.301513671875	1304.401611328125	-535.6382446289062	-815.771728515625	1396.434936523438	-723.0084838867188	-732.4761352539062	1425.521606445312	-824.0327758789062	-771.8972778320312	1317.008911132812	-925.6014404296875	-778.2347412109375	1101.842041015625	-972.9298706054688	-840.6165161132812	1089.00537109375	-891.4935302734375	-703.9638061523438	891.9736938476562	-960.203125	-767.2196655273438	884.5830078125	-1002.320129394531	-766.9617919921875	1013.644958496094	-991.050537109375	-722.3096923828125	722.9078369140625	-973.9141235351562	-765.5159912109375	805.365234375	-1009.962036132812	-699.9093627929688	804.34912109375	-979.1774291992188	-658.593017578125	1386.15625	-493.5971374511719	-666.736083984375	1321.570190429688	-420.7886962890625	-676.6314697265625	1036.01611328125	-373.9064636230469	-735.6748046875	1025.3642578125	-406.1418151855469	-604.7351684570312	823.8292236328125	-441.9738159179688	-660.0234985351562	813.7011108398438	-373.6517944335938	-675.8264770507812	977.1947631835938	-366.2978515625	-625.2735595703125	667.3137817382812	-441.1806335449219	-601.4103393554688	723.4501342773438	-437.2042236328125	-656.9978637695312	725.5753784179688	-383.8702087402344	-669.809326171875	1622.996337890625	-559.9216918945312	-527.0704956054688	1636.22021484375	-708.6876220703125	-533.5154418945312	1632.618408203125	-578.0934448242188	-677.0501708984375	1633.250854492188	-737.259765625	-788.5087890625	837.6883544921875	-870.760498046875	-669.6051635742188	848.364501953125	-492.3231506347656	-596.6421508789062	897.6842651367188	-584.1087036132812	-669.0247802734375	879.4531860351562	-830.3494262695312	-805.0421142578125	419.2013549804688	-865.1812744140625	-761.9188842773438	570.9486083984375	-884.2664794921875	-1145.714599609375	162.6883850097656	-770.6448364257812	-920.886474609375	308.0337829589844	-851.2880249023438	-988.3966064453125	36.31116485595703	-682.7221069335938	-1026.249755859375	79.31785583496094	-667.2379150390625	-1061.37646484375	43.62952041625977	-765.657470703125	-1144.265380859375	221.1515197753906	-717.7402954101562	-588.7769165039062	462.7871398925781	-577.6150512695312	-605.00146484375	721.350341796875	-516.490234375	-565.0286254882812	37.80256652832031	-619.9631958007812	-559.521484375	323.9881286621094	-589.7102661132812	-380.3566589355469	56.47752380371094	-738.7806396484375	-453.6968383789062	58.00156021118164	-752.1406860351562	-433.3261108398438	45.25226593017578	-647.0598754882812	-642.9603271484375	30.08650970458984	-638.8170166015625	
